<svg xmlns="http://www.w3.org/2000/svg" width="499" height="623" viewBox="0 0 499 623"><defs><mask id="a" width="499" height="623" x="0" y="0" mask-type="luminance" maskContentUnits="userSpaceOnUse" maskUnits="userSpaceOnUse"><path d="M0 0h499v623H0z"/><path fill="#010101" d="M0 0h499v623H0zm407.4 46.8c-4 2.3-7 5.6-9.8 9q-3 4-5 8.6c-1.2 5.2-1 10.4-.6 15.6l1 6-1.4 1c-16.9 12.3-30.6 27.8-42.3 45q-11.1 17.3-19.5 36.2L326 176l-2.2-.7-8.1-2.6-3.5-1.1-5-1.7-3.1-1-3.1-.9-1.7-.6c-4.4-1.4-8.4-1.7-13-1.7h-13.8c-14.2-.1-27.6 2.2-41.2 6.3q-7.6 2.2-15.3 4l-.8-1.7c-2.2-4.2-5.3-7.7-8.2-11.3l-1.3-1.7q-4.2-5.2-9.5-9.5l-4.3-3.7c-5.9-5.5-12.2-9.8-18.9-14.1v-2.3c-.2-4.3-.5-8.3-2-12.5q-3.1-6.9-8.2-12.6-4.4-3.8-9.5-6.5c-3.9-1.3-7.3-1.7-11.4-1.7q-6.9 0-13.3 2c-3.7 1.8-6.5 4.1-9.5 7q-4.4 4.3-7.4 9.9-2 5.7-2 11.9c0 4 .5 7.2 2 11q2.5 6 6.5 11c3.4 3.4 7.5 5.7 11.8 7.8 4.4 1.5 8.8 1.4 13.4 1.3q4.7-.3 9-1.9 6.1-3 11-7.6 2.2-2.6 3.6-5.8l4 2q3.6 3.9 7 8l1.9 2.2q9.2 11 16.1 23.8l1 3-2.5.8c-17.8 5.9-34.5 18.5-49 30q-7.9 6.4-15.5 13.2l-1.6 1.4C106.1 249 88.2 272.6 74 298.6c-11.4 21-20 42.6-27 65.4l-1 2.9q-2.4 7.5-2.4 15.4c.8 5.9 2.8 11.6 4.6 17.3l1.2 4 2.5 8 3.7 12.1 7.5 24.7 5.5 18.7q3.8 12.5 8.4 24.9 13.4 8.5 27.4 15.8l3.8 2Q116 514 124 518q6.6-.9 12.5-3.7l1.8-.8 5.6-2.6 3.8-1.7 9.3-4.2.9 1.9q2 3.6 4.8 6.8l2.5 3 1.3 1.5 4.8 5.8 18.1 21.8 1.3 1.5 1 1.2 3 4c2.1 2.3 4 3.8 6.8 5.3.9.4.9.4 1.7 1l1.9.9 5.8 3.1 5.6 3 3.8 2.1q10 5.4 19.7 11.1c4.7-.5 8.5-1.4 13-3.4l1.5-.7 3.3-1.5 5-2.2q8.4-3.6 16.2-8.2l.5-1.5 5.3-15 2-5.6 2.8-8 1-2.6.8-2.4.7-2c.9-1.9.9-1.9 2.3-3.5q2.4-2 5.2-3.2l2-1 2.4-1 2.3-1 5-2.2 7.5-3.4 4.8-2.1 2.3-1c4-1.8 7.7-3 12.1-3.5l11.7 6.2 4 2.2 5.8 3 1.8 1q4.6 2.3 8.7 5.6c4-.8 7.4-2.4 11-4l2.1-1 4.3-2 6.5-2.9 4.2-1.9 2-.9q4.1-1.7 7.9-4.3l2.6-8.5.8-2.7 5.3-18c4.3-14.9 4.3-14.9 6.2-20.6q3-8.6 5.2-17.4 5-18.5 10.7-36.7l2.2-7.3 1.7-5.4 2.1-7.1 5.3-17 1-3.1 2-5.8c1.4-4.6 1.4-4.6 2-9.4q-.8-5.4-3-10.3l-1.2-3.1-1.3-3.4-.7-1.8q-8.3-20.4-17.1-40.6-7-16.4-13.8-32.9l-.8-2q-3.8-9.1-7.3-18.5l-2.8-7-1.8-4.8-1-2.9-1-2.5c-1.2-2.3-1.2-2.3-3.4-4.2-3.6-2.7-7.7-4.5-11.8-6.4l-2.6-1.3-5.5-2.6-8.2-3.9-5.3-2.5-2.5-1.2q-7.8-3.6-16-6.1c5-21.8 15.6-44.6 27.5-63.4q8.1-12.3 17.8-23.4 2.2-2.9 3.7-6.2h3l1 3 4.8 3 2.7 1.6c2.5 1.5 2.5 1.5 5.5 2.4 6.3.4 12.8.7 19-.6q6.2-2.4 11.3-6.5c3-2.8 4.8-5.5 6.6-9 1.8-3.9 2.9-7.3 3.4-11.4q.7-5.9-.8-11.3Q451 59.7 447 54c-3.4-3.7-7-6-11.4-8.3q-4.9-2.3-10.1-3c-6.6-.3-12.3 1.2-18.1 4.1"/><path fill="#030303" d="M383.6 218H396c3.4 6.3 6 13 8.7 19.6q6.6 16.8 13.6 33.4l.7 1.9 4.2 9.8 5.9 14 8 19.2L449 344l-1 4-4 5.9q-7.7 11.5-14.7 23.5-11.1 18.6-22.6 37l-7.6 12.1-4.1 6.5q-22.2 10-44.6 19.6Q329 461.5 308 471q-5.6-1.7-10.7-4.4l-2.6-1.5-2.8-1.5q-11.2-6.3-22.6-12.2-10.7-5.5-21.2-11.5l-20.2-11-1.7-1-9.2-4.9-1-4c.1-1.9.1-1.9.5-3.9l.4-2.4.5-2.7.6-3 1.2-6.9q1.5-7 2.6-14.3 5.3-29.2 11-58.5l2.2-12 3.4-17q3-14.5 5.3-29c.7-4.3 1.4-8.3 3.3-12.3 32.7-18.6 68-30.3 105-36.7q15.7-2.6 31.6-2.4m-74.1 46.6Q298.9 270 290 278l-1.4 1.3c-8.7 7.8-15.1 16.4-20.6 26.7q-7.6 14.8-10.7 31.3l-.9 4.2c-1.5 9.2-.7 19.3 1 28.4q3 14.1 10.5 26.5 7 10.3 17 17.5 8.8 5.7 19 8.6c4.2 1 8.5.7 12.7.7h2.9c7.1 0 13.8-.7 20.6-2.9q3-1.1 5.8-2.4l2.1-1c6.3-2.9 11.6-6.5 17-10.9l2.5-2q12.6-10.8 21-25.2Q396 365.6 400 351l1-3.3c2.7-10.7 2.8-21.7 2-32.7q-1.5-11.6-6.8-22c-3.4-6.4-7-12.8-12.2-18q-9-8.2-20.3-13l-2.7-1-2.7-1c-7.9-2.4-16-2.7-24.3-2.4-8.8.5-16.6 3.3-24.5 7"/><path fill="#f1f1f1" d="M430.6 43.6q7.8 2.9 14.3 8.1c3.5 3.8 5.8 8 7.8 12.7q1.8 4.8 2 9.8-.5 7.4-3.3 14.2-3 5.4-7.2 9.7-3.8 3.3-8.3 5.2c-5.2 1.9-10.2 2-15.7 2-3.4 0-6-.3-9.3-1.3q-5.8-3-10.9-7v-2h-3l-.7 1.7q-1.9 3.2-4.3 5.8c-16 18-27.2 39.4-36.1 61.7-4.7 11.7-4.7 11.7-7.9 23.8l1.4.4c8.4 2.5 16.2 6.6 24 10.5l4.4 2.1 22.2 11c2.8 4.3 4.7 8.8 6.6 13.5l1 2.6 2.2 5.5 6 14.9q.8 1.5 1.3 3.1l13.8 33q9.9 22.8 19 45.8l2.3 5.2 1.1 2.6 1 2.2c.7 2.6.7 2.6.6 4.3q-.9 7-3 13.6l-.6 2.1-2 6.8-1.5 4.7-3.8 12.5-4.5 15-3.6 11.7-6.6 22.2-.7 2-4.1 14.8q-2.5 9-5.6 18-3.5 10.8-6.5 21.9l-4.4 15q-12.7 6.6-25.8 12.4l-2.3 1-2.1 1-2 .9q-2.8 1-5.8 1.7l-1.8-1q-9.8-6-19.8-11.4l-3-1.6-7.4-4c-5.5.6-10 2.5-14.9 4.8l-2.5 1.2-8 3.6-5.4 2.4-13.2 6-11.4 31.2-1.1 3-2.5 6.8q-16.8 8.5-34 16-3.6-.1-7-1-5.6-2.6-10.8-6l-6.2-3.5-1.5-1q-4.7-2.7-9.6-5c-6-3.1-11.7-6-16.4-10.8q-3.8-4.5-7.2-9l-4.9-6-5.4-6.7-19-23v-2l-9.5 4.1-4.8 2q-7.5 3.2-14.7 6.9c-3.3-.4-6-1-9-2.3l-3.4-1.7-1.8-1-5.7-3-2-1q-15-7.7-29.1-17-8.1-22.4-14.6-45.3-2.4-9-5.4-17.7-5.1-15.4-9.2-31.2-.7-2.7-1.7-5.4-2-6-2.5-12.2c.2-6.3 2-12 3.9-18l1.1-3.6C59 325.3 74 293.9 95 266l1.2-1.7q16.6-22.2 37.8-40.3l2.6-2.2q17.6-14.9 37.4-26.8l3 1-2 2 1 2-1 3-3 3q17 11.5 34.5 22.2l14.8 9.3 2.3 1.5 17.4 11q3.6-.1 7-1 5.3-2.3 10.4-5c30.5-15.5 63.6-26.5 97.6-31l19.2-1.8c1.9-.1 1.9-.1 3.8-1.2l-2.3-1.1L345 193l-1 7-1 1c-4.1.3-7.4.2-11.4-.9L322 197l-1-1 .4-3.7.2-2q.8-3.8 2.4-7.3l-10.1-3.3-3.5-1.1c-10.8-3.6-20.7-6-32.2-6l-3 .1c-16.6.3-32.4 3.5-48.4 7.9-1.8.4-1.8.4-4.8.4l1.5 3 10.5 21.2 1 2 2 4.8c.2 2.4.2 2.4 0 4l-5 2-.9-1.9c-8.8-19-17.6-36.4-32.4-51.5L197 163l-1-8 4 1q8.8 8.3 16 18v2l2.5-.7q9.9-3 20.1-5.4l2-.5 6.4-1.4 2.6-.5c8.7-1.7 17.2-2 26-2.1h2.3c12.1 0 22.7 1.6 34.1 5.6l8 3 6 2 6.2-12.7c10.5-23 24-42.7 41.5-61q1.7-1.6 3.2-3.4c4.8-5 10.4-9 16.1-12.9l-.5-2.6q-1.4-8.2-.5-16.4 2.7-7.8 7.7-14.2 4-4.4 9.4-7.2 10.4-4.6 21.5-2M415 50c-5.3 3.2-9.8 6.4-13.8 11.2Q399 64.4 398 68c-.2 2.9-.2 2.9-.1 5.8v3l.1 2.2 2 3 2.8-1.6 3.8-2.2 1.8-1q6-3.6 12.6-6.2V59.7l.1-2.5V55c0-2.2 0-2.2-1.1-5zm11 0 2 16 18 1c-.7-4.5-.7-4.5-1.8-6.6-2.8-3.4-5.8-5.5-9.5-7.8L430 50zm0 24-1 1v24c8.2-1.4 8.2-1.4 12.2-3.6q4.3-3.6 7.5-8.4 2-2.8 3.3-6c.2-3.2.2-3.2 0-6-2-1.3-3.7-2.2-6-3-5.7-.6-10.8-.3-16 2m-8 4-5.9 4.2-1.7 1.2q-2.3 1.7-4.4 3.6c-1.4 2.1-1.4 2.1-2 4 4.5 4.2 4.5 4.2 9.7 7.4 2.4.7 2.4.7 5.3.6V78zm-37 26c-15.3 14.2-27.8 31.4-37.5 49.8q-7.2 14.2-13.2 28.9l-.7 1.8q-1.5 3.3-1.7 6.9l.1 1.6c2.8 1 4.4 1.1 7.2 1h3.8q2.7-6.7 4.7-13.8c6.9-23 17.4-46.4 31.6-66q3.2-4.2 6.7-8.2zm-209 95-3 2 1 2 4-4zm-8 11c-12.6 9.7-22.2 20.4-30.8 33.8Q125.6 256 119 269l-3-2-1 1q.4-3.7 2-7 1.7-3.4 3.7-6.8l1.3-2.3q4.5-7.8 10-14.9l-1-2c-10.9 10.6-10.9 10.6-21 22l-1.3 1.5c-11.5 13.8-21 28.7-29.6 44.5l-3.3 5.8C64.8 328.5 56.4 351 51 373v2q5.2-2 10-4.7l3-1.5 3-1.7 2.9-1.6q7.3-3.8 14.1-8.5 2.1-5 3.2-10.3l.7-3 .7-3.4q3.3-14.4 7.6-28.6l1-3.2c1.6-5.1 3.2-9.9 5.8-14.5l3-1 1-4h2l-.7 2.3c-8.1 26-8.1 26-15.4 52.2l-.6 2.4c-1 4.1-1.5 7.8-1.3 12.1l1.7.8q20.2 10 39.9 20.9 17.6 9.6 35.7 18.4 16.6 8.2 32.7 17.1l2.7 1.5 2.4 1.4 1.9.9h2l.4-2.4 1.6-8.9.6-3.8q1.6-9.5 3.9-18.8 2.2-9.2 3.7-18.6l2.5-13.6.5-2.3.8-4.6q3.4-16.6 6-33.4 1.4-9.4 3.5-18.6 2.4-11.2 4.3-22.6l.4-2.3q.9-6 .8-12.1-9.6-7-19.8-13L186 223l-2.2-1.4-5.8-3.7-1.6-1L166 210zm146 20-2.4.8q-19.5 6.2-38 14.9l-2.2 1c-7.4 3.3-14.7 6.6-21.4 11.3q-4.7 21.7-8.4 43.8-3 19-7 37.8l-3.7 18.5q0 1-.4 2-3.2 16.5-6 33l-1.7 9.3-.5 3.2-1.2 6-.5 2.8-.4 2.4c-.3 2.2-.3 2.2.3 4.5l.5 1.7 2.1 1.1 10 5.4 2 1 28.5 15.6q16.3 9 32.8 17.5l1.7.8 4.3 2.2 7.6 4.4q8.9-2.9 17.3-6.8l3.3-1.5 8.9-3.9 13.9-6 3.4-1.5q9.7-4.4 19.6-8.4l1.8-.8 8.5-3.5 3.1-1.3 2.7-1.1q3.8-1.9 7.5-4.2c1.6-2 1.6-2 2.9-4.3l1.5-2.6 1.5-2.7 3-5.2 1.6-2.5L414 402l4-2v2h2q-5.8 11.8-13.2 22.8c-4.5 7-7.2 14.3-9.8 22.2l-1.6 5-4.5 13.7-2.8 8.5q-6.3 18.7-11.1 37.8 8.3-2.7 15.9-6.6l2.6-1.3 6.5-3.1q3.4-10 6.4-20l.9-3 7.1-24 1.8-6 .6-2 .6-2 4.3-14.8q7-24.3 15-48.2l.8-2.6.8-2.3q1-3 1.7-6.1l-4 4v2l-4-1-3 1c4.7-10.4 11-20 18-29-.6-4.8-2-8.8-4-13.2l-1-2.2-2-4.5-5.4-12.5-1.1-2.6q-6.3-14.3-12.1-28.7l-1-2.6-10.5-25.1-2-4.8-4.4-11c-4.5-11-4.5-11-9.5-21.8-29.4-.7-57.9 3-86 12M84 364l-5.7 3-1.7.9-5.4 3-5.3 2.8-3.3 1.8q-5.2 2.9-10.6 5.5c1 2.5 2.2 4.2 4 6.3l2.5 2.4L60 391l4.3 4.2 5.6 5.6 1.4 1.3q4.8 5 9.3 10.2 2.3 2.6 5 4.7 4.8 4 8.7 8.9 4.6 5.2 9.8 10.1h1c-.6-5.8-1.8-10.8-3.6-16.3q-4-12-7-24.3l-.4-1.7-.4-1.7-7.6-28zm8 1q2 10.7 5.4 20.8 3.5 10.4 6 21.3 1.5 6.2 3.5 12.2 2.4 8 4.3 16c1.1 4.7 2.4 8.6 4.8 12.7l4.4 5q4.9 5.1 8.6 11l-2 1-1 4-7-9-1 3 .4 1.6q5.2 22.6 9.6 45.4c5-1.6 9.7-3.2 14.3-5.6 3-1.6 5.5-2.7 8.7-3.4-.6-4.1-.6-4.1-2-8h5l1 1.2q9 11.1 18.1 22 6 6.8 11.6 14 6.7 8.8 14.3 16.8l1.8 2q3.5 3.1 7.7 5.3l1.6.9 5 2.7 3.4 1.9 6.5 3.5 10.3 5.9 1.7.8h2l-.7-3.3q-4.4-21-8.3-41.9t-8.3-41.6l-3.2-15.4-1.5-7-1-5.3-2.3-10.8L210 427q-7.4-5.4-15.7-9.4l-1.8-1-5.7-2.7q-13.3-6.5-26.3-13.6-17.7-9.7-35.8-18.7l-6.2-3.2zm-39 28q2.8 12.5 7.2 24.6 3.2 9.1 5.7 18.4 3.8 13 8 26l2.5 8.5 1.7 5.5.8 2.6.8 2.4.6 2q1.1 3 2.7 6 19.4 10.2 39 20-3.7-21-8.2-41.9l-.4-1.7-1-5-.7-2.8q-1-3.9-2.7-7.6-2.2-2.8-4.7-5.4l-1.4-1.5q-10-10.4-20.2-20.4c-15.3-15.1-15.3-15.1-20.4-21.2q-2.5-2.9-5.2-5.5l-1.8-1.8L54 393zm164 37c1.9 15.9 5.4 31.5 8.7 47l1.3 6.5.9 4.3 6.2 31q5 26.3 10.9 52.2 6-1.9 11.6-4.4l3.1-1.3 3.2-1.4 3.2-1.4 7.9-3.5.5-1.5q10.8-32.7 22.7-65 3-8.2 5.8-16.5-14-8-28.4-15.4l-24.3-13q-8.6-4.9-17.5-9.5-7-3.7-13.8-8.1zm170 12.7-2.2 1-2.7 1.2-2.9 1.3-6.2 2.7-1.7.8q-9.5 4.1-19.1 8l-27.6 11.9-2 .9q-6.9 3-13.6 6.5l-5.1 14-1.8 4.7-2.5 6.8-.8 2.1-.7 2-.6 1.8c-.6 1.8-.6 1.8-.5 4.6q6.8-2.1 13.2-5.2l2.1-1 6.6-3 8.5-4 2.2-.9q8.3-3.8 16.5-7.3l21.4-9.5 4-1.8 9.5-4.3q4.4-10.5 7.7-21.5l1-3c1.7-4.7 1.7-4.7 2.3-9.5-2.9-.2-2.9-.2-5 .7M377 484l-6.4 2.8-2 .9-6 2.7-6.1 2.8-3.8 1.7q-3.7 1.8-7.7 3.1v2l22 13h3l3.8-11 1.4-3.7 1.8-5.3 1.2-3.3c1-2.7 1-2.7.8-5.7z"/><path fill="#020202" d="M164 210c4.4 1.5 7.9 3.8 11.7 6.4q8.4 5.7 17 11 19.2 11.6 38 23.8l2.1 1.4 2 1.3 1.8 1.2c1.4.9 1.4.9 2.4 1.9-.9 13.8-3.9 27.3-6.5 40.8l-3.4 19q-4.8 29-10.6 57.8-2.5 12.4-4.8 25-1.7 9.7-3.7 19.4c-5.8-1.6-10.7-4.5-15.9-7.4q-12-6.6-24.3-12.7-13-6.4-25.8-13.3l-17.5-9.1-25.7-13.4-2.1-1.2-1.9-1L91 358c.5-8.3 2.4-16.1 4.6-24.1l.5-2c9-33.2 21.2-65.7 41-94.2q11.2-16.1 26.9-27.7M92 365l2.7 1.4 1.9.9 4.2 2q6.2 3.3 12.5 6.3 18.9 9.5 37.5 19.4l12.9 6.8 4.5 2.4q14.2 7.6 28.8 14.7l2.1 1 1.8.9q4.7 2.8 9.1 6.2l.6 3.1 3 14.6.6 2.7q3.3 16.4 6.9 32.7 3.9 18.3 7.2 36.6l6.6 33.9.4 2.3 1.3 6.4.4 1.9q.8 4.5 2 8.8-6.1-1.9-11.8-5l-1.6-1-3.3-1.9-5-2.8-9.3-5.3-2.4-1.4c-3.1-1.8-5.5-3.5-8-6.1l-2-2.6-2.3-3-1.2-1.4-5.4-6.8-1.1-1.4L176 520q-8.3-9.8-16.5-19.8-9.4-11.9-19.3-23.3-5.2-6-10-12.3l-5.3-6.1-1.6-1.9-3.2-3.6q-3.9-4.1-6.5-9.2-2-6.2-3.5-12.7-2.5-10.4-5.7-20.5-2.8-8.6-4.8-17.4-2.5-9.6-5.7-19l-.7-2.3-.7-2C92 368 92 368 92 365m259.8-100.3q9.9 2.4 18.6 7.6 8 4.9 13.7 12.2 7.9 11 11.6 24c2 9.6 2 19.8.9 29.5-1.9 12.6-6.6 24.5-12.5 35.7-3.4 6.1-7.3 11.2-12 16.2q-2.4 2.5-4.4 5.2c-4 4.8-9.4 8.6-14.7 11.9-7.1 4-15 7.7-23 9.6-7.5 1-15.4 1.3-23 0q-8.5-1.9-16.2-6.2-8.4-5.6-14.8-13.4-7.1-10.2-11-22c-1.9-6.6-2.3-12.9-2.2-19.7v-3c.1-10.4 1.3-19.6 5-29.4q1.5-4 3.2-7.9l.7-1.7c4.7-10.9 12-20 20-28.6q10-9.4 22.5-15.3c12-5.2 24.6-7.4 37.6-4.7m-32 38q-8.9 4.2-15.6 11.2-6.6 8.3-10 18.3c-1.4 5.4-1.6 10.9-1.5 16.5.5 5.5 2 10.3 4.3 15.3q4 6.6 9.8 11.8c2.7 2.2 5.1 3.9 8.3 5.1 5.6 1.6 11.4 1.7 17.2 1.3q5.3-.7 10.2-2.9 7.8-4.1 13.7-10.6 5-5.8 8.2-12.8l1.6-4.9.7-2q2-7 1.5-14-.5-7.8-3.2-15-4.1-7.6-10.5-13.4-4-3.2-8.7-5-7.3-2.2-14.8-1.9-5.8.6-11.2 3"/><path fill="#030303" d="M299.8 174.1q12.2 3.5 24.2 7.9l1 2-.7 1.4-.8 1.8-.8 1.8c-.8 2-.8 2-.8 4.7l.1 2.3c8.7 3.1 8.7 3.1 17.8 4.3l3.2-.3 2-7q5.2 2 10.2 4.5l3 1.4 3.1 1.5 3 1.4L381 210c-1.7 1-1.7 1-4 2l-5.6.7-3.3.3-1.8.2c-38 3.6-73.3 15.3-107.6 31.5l-5.4 2.7-2.7 1.4-2.3 1.3c-2.3.9-2.3.9-5 1l-2.3-.1-1.7-1-7.5-4.8-2.6-1.7L217 236l2-4 3.3-.6 4.4-.8 2.2-.4q5.7-.9 11.1-3.2c-.6-5.8-2.2-10.5-4.5-15.9l-1-2.5q-4.5-9.9-9.7-19.3l-1.1-2-1-1.7-.7-1.6v-3c24-7.7 53-13.3 77.8-6.9"/><path fill="#010101" d="M217 430q4.8 1.8 9.3 4.3l2.5 1.4 2.8 1.5 5.9 3.2 1.6 1 19 10.2 1.9 1 22.5 11.9Q293 469.9 303 476l-6.2 18-1.8 5-1 2.7q-10.2 28.4-20 57.2l-11.4 5.1-4 1.8-5.5 2.5-1.8.8-4.3 1.8h-2l-.6-2.7-2.1-10.5-1-4.7-5.3-25.5-6.4-32.1q-2.4-13-5.2-25.9l-5.2-25.4-.7-3.3-.6-3-.5-2.6c-.4-2.3-.4-2.3-.4-5.3"/><path fill="#030303" d="M336.8 306.6c4 .5 7.3 1.3 11 3 3.2 2 5.5 4.4 7.8 7.4q3.3 4.3 5 9.7c1.2 6.2 1 13 .4 19.3q-1.4 6.4-5 12-4.2 6.6-10 11.6-5.8 4-12.6 5.9-5 1-10 .9-5-.8-9.4-3.2c-3-1.8-4.8-3.6-7-6.2l-2.1-2.2c-2-3-3.3-5.5-4.4-9q-1.6-9.3-.5-18.8c1-4.9 2.8-9 5.3-13.2q5.3-7.4 12.7-12.8c6-3.9 11.7-4.6 18.8-4.4"/><path fill="#040404" d="M53 393q9.4 7.7 17.2 16.8 5.4 6 11.3 11.8l2.1 2 6.6 6.6 8.7 8.6 2 2c6.5 6.5 6.5 6.5 9.1 10.2 1 2.5 1 2.5 1.5 5.1l.7 3 .7 3.3.7 3.4q4.4 20.6 8.4 41.2l-1 2-11.8-6-4-2.1q-12-6-23.2-12.9l-.9-2.9-3.4-10.8-1.5-4.8-9.1-28.8q-3.2-9.9-6-19.9-2.7-9.3-5.8-18.5l-1-2.8-.7-2.5c-.6-2-.6-2-.6-4"/><path fill="#f1f1f1" d="M150 99c3.3 1 5.8 2.3 8.7 4.2q5.5 4.2 9.3 9.8c1.8 3 3 5.7 4 9q.9 6 1 12l7 5-1 4-2 2 2 1.8c11.8 10.9 20 24.6 27.4 38.7 6.1 12.2 11.6 25.2 14.6 38.5h12v-7l5-2 3 8-1 5c-4.4 1.6-8.6 3-13.3 3.2q-4.4 0-8.7-.2c-1.4-1.2-1.4-1.2-3-3-.9-2.1-.9-2.1-1.6-4.6l-.8-2.7-.8-3q-3.8-12.4-9.5-24L201 191v-2l-2 1-7.7 4-3.2 1.8-4.8 2.5-2.8 1.5C178 201 178 201 175 202l-1-4 2-4 9.4-5 2.7-1.4 2.5-1.4 2.4-1.3 2-.9h2c-2.9-6.8-6.7-12.7-11-18.7l-1.5-2.2Q178 153.8 170 146l-3-1-.7 1.7c-1.5 2.7-3.1 4.3-5.4 6.4-2.9 2.4-5.5 4.5-9 5.9q-7.7 1.8-15.5 1.4c-3.4-.4-5.8-1.1-8.9-2.6L123 155l-1.8-1.1q-2.3-1.7-4.2-3.9-3.6-5.7-6.3-11.9-1.4-7-.7-14.1c.5-3.3 1.4-6 3-9q4.9-6.7 11.2-11.7 3.6-2.5 7.6-3.9 9.1-1.6 18.2-.4m-6 6c-1.1 1.7-1.1 1.7-2 4-.2 3-.2 3-.1 6.3v3.2l.1 2.5 1.4.5 6.2 2.3 2.2.8q5 1.8 9.6 4.1l2.6 1.3h2c.3-2.2.3-3.8 0-6q-2-5.3-5-10-4.4-4.8-10.2-7.9c-2.7-1.2-2.7-1.2-5.2-1.3zm-11 1c-3.6 2-7 4-9.9 6.9L119 118v3l17-2 1-13zm-11 20-5 3c-.2 2.5-.3 4.5 0 7q1.4 4.8 4 9c2.7 2.9 5.5 5 8.8 7.2l2.2.8h6v-27zm22 2v26c5.5-.6 5.5-.6 8.2-2 3.4-2.1 6.2-4.2 8.8-7.3l2-2.7-1-4c-4.7-4.3-10.3-7.2-16-10zm28 71 2 1-5 3 1-3z"/><path fill="#050505" d="M389 442h3q-3 11.4-6.7 22.7l-1 3-2.3 7.3q-13.7 7-27.8 13.3l-3.8 1.6-27.9 12.3q-9.7 4.3-19.3 8.9L299 513h-2q2-10 6-19.6l1-2.8 6-14.6q20.7-9.4 41.8-18.1l11-4.6 2.6-1.1 12.4-5.3 2.2-1 4.1-1.9z"/><path fill="#060606" d="M131 235v3l-1.7 2.5c-20.2 30.6-32.4 65-41 100.5q-1.8 7-3.3 14c-2.4 2.8-4.8 4.6-8 6.4l-4.6 2.5-4.9 2.6-2.3 1.3Q59 371.3 53 375h-2c7.8-32.5 21.1-63.3 39.2-91.3C102 265.9 116 250 131 235"/><path fill="#f1f1f1" d="M353.2 258.7q10.2 2.3 19.1 7.5c6.2 4.2 12.1 8.5 16.8 14.4q2.7 4.1 4.9 8.4l.8 1.5c3.7 7.1 6.8 14.5 8 22.5q2 17.5-1.9 34.9-3.5 13.6-9.9 26.1l-1.5 3.1c-5.4 10-13 18.9-21.3 26.6q-12.6 10.8-28.1 16.7c-8.4 3-17 3-25.8 3-5.2-.2-10-.4-15-2L294 419l-3-1.5q-9.6-4.9-16.7-12.8-7-8.1-11.3-17.7v-4l4 2v2h4l1 1.9q4.6 8.4 11.6 15 6.9 5.8 15.3 9.4c6.3 2.2 12.2 3.1 19 3.3 7.5-.1 14.3-1.4 21.4-4 9.7-4 18.1-9 26-16 8-7.5 14.5-16.8 19.7-26.6q2.8-6 5-12l1.1-3c3.7-10.4 5.3-20.6 5.2-31.6-.2-7-1-13.7-3.3-20.4-3-7.5-6.8-14.8-12-21q-7-7.1-16-11.5-4.5-1.9-9-3.5l-2-.7c-5.7-1.9-11.9-1.8-17.8-1.6q-10.9.7-21 5c-7.9 3.7-14.6 8.6-21.2 14.3h-3c1.2-5 1.2-5 2-7 1.7-2.5 1.7-2.5 4-5q3.3-2.4 6.8-4.1l1.8-1c6.7-3.8 14-7.2 21.6-8.6 8.5-1.3 17.6-1.2 26 .4"/><path fill="#060606" d="m441 370 1 2-.9 2.1c-3.7 9.2-6.5 18.6-9.3 28.1l-4.4 14.5L419 445l-2.4 8.1-.6 2.1-4.6 15.4q-4.6 14.6-8.4 29.4l-13.8 7-4.4 2.2-2.2 1-2 1-1.6.8h-2l.6-1.9L381 498q5-17.7 10.5-35l1.7-5.5c4.5-14.8 10-27.8 18.6-40.8l3.1-5 1.6-2.3 5.8-9.6q9-15 18.6-29.7"/><path fill="#efefef" d="M339 300q6.5 1 12.2 4.2 6.6 4.8 11.3 11.5c2.7 4.2 4 8.3 5.2 13.1l.3 3.2.2 2.3c.4 5.8-.5 11-2.2 16.7-1.7 5.2-3.7 9.7-6.9 14.1-3.3 4.2-6.7 8-11.1 10.9q-6.6 3.9-14 6c-6.2.6-12.7.7-18.7-1-3.8-1.4-6.5-3.6-9.6-6.2-3.4-3.3-6.4-6.5-8.7-10.7-2.4-5-3.8-9.7-4.3-15.2-.2-6.4.4-12.2 2.3-18.3 2.3-6 5-11.6 9-16.7 3.1-3.4 6.6-5.8 10.5-8.3l1.6-1c7.3-4.3 14.4-5.3 22.9-4.6m-18.3 9.5c-4.5 2.6-8.4 5.3-12 9.1q-5.4 7.6-8.3 16.3-1.4 9-.4 18.1c.8 4 2 7.4 4 11q2.4 4 6 7 5.1 3.2 11 5 5 .7 10 0 8-2 15.2-6.4c4-3 6.8-7 9.4-11.2l1.4-2.4 1.3-2.2c1.5-3.2 2.5-6.2 3-9.8q.7-8.9-.8-17.7-1-2.7-2.5-5.3l-.9-1.6q-2.4-4-5.9-7-4-3.3-8.8-4.9-6-1.2-12-1c-3.6.5-6.4 1.5-9.7 3"/><path fill="#050505" d="M84 364h2q3.6 12.5 6.8 25l.5 1.9 2.3 9 .8 3.3.8 3c.8 2.8.8 2.8 1.9 5.5 1.2 3 1.3 5.8 1.5 9.1l.1 1.8.3 4.4-1.2-1-1.8-1-2.5-.4-2.5-.6c-2-1.3-2-1.3-3.7-3l-2.1-2q-7.7-7-14.4-14.7-6.1-7-12.7-13.3l-2.4-2.3L52 383v-2l3-1.4q12-6 24-12.8l1.9-1.1 1.7-1z"/><path fill="#060606" d="M199 189h2q9.6 18.7 15 39v2l11 1v1l-1.6.1-2.2.3-2.2.2-2 .4-3 2q-14.6-8.7-28.8-18l-3-2-4.4-2.7-2.5-1.6q-3.4-2.5-6.3-5.7 9-6.5 19-11.4l2.5-1.3 2.5-1.3 2.2-1.2z"/><path fill="#ededed" d="m293 275 2 1-.9 1.6c-1.2 2.4-1.2 2.4-1.7 5.5-.5 1.9-.5 1.9-1.4 3.9l-5.3 5.9q-8.5 9.3-13.4 21c-4.5 10.6-7.9 21-8.4 32.7-.6 13-.6 13 1.4 25.6l1.7 4.8 1.7 5.7 1.3 4.3-3 1-2-4-2-1-1 2c-5.8-17.5-5.8-17.5-6-25l-.2-3.5c-.5-12 1.8-23 5.3-34.3q5.7-17 16.5-31.3c4.6-5.8 10-10.8 15.4-15.9"/><path fill="#090909" d="M196 166h5c10.8 11.1 18.5 23.6 25.6 37.4l1.6 3c1.8 3.8 3.5 7.2 4.4 11.3q.3 3.1.4 6.3c-2.9 1-4.7 1.1-7.7 1H221l-.5-1.6c-6-18.6-13.4-38.2-24.5-54.4z"/><path fill="#080808" d="M118 460q5.6 5.6 10.8 11.6l1.5 1.9q6 7 11.7 14 4.4 5.3 9 10.5v3l-1.8.7q-8.6 3.4-17 7.3l-2.2 1h-2l-.4-2q-3.6-19.1-8-38.2l-.7-2.6-.5-2.2c-.4-2-.4-2-.4-5"/><path fill="#090909" d="m354 140 3 1c-.5 6.3-2.6 11.6-5 17.4l-3.5 8.3-.7 1.7Q344 178 341 188l-2 6h-3.8l-2.2.1c-2-.1-2-.1-5-1.1.6-4.9 2-9 4-13.6l.9-2.2 8.2-18.3 1.3-2.6q3.7-8 8.6-15.3z"/><path fill="#080808" d="m417.8 49.9 2.2.1c1 2.8 1.1 4.4 1.1 7.2v7.5L421 71l-22 11c-1.3-3.8-1.3-7.2-1.3-11.2.3-2.6.7-4.6 1.7-7 2.4-4.1 5.8-7 9.4-10.1 3-2.3 5.1-3.7 9-3.8"/><path fill="#090909" d="M442 72c2.3.8 4 1.7 6 3v6c-5.4 9.8-5.4 9.8-8.9 13q-4.3 2.8-9.3 4.5c-1.8.5-1.8.5-4.8.5V75l2-2q7.5-1.8 15-1"/><path fill="#040404" d="M122 126h16v27h-6c-4.1-2.6-8-5-11.4-8.5-1.8-2.8-2.8-5.2-3.6-8.5v-7z"/><path fill="#080808" d="M377 484h2q-1 5.5-2.8 10.7L375 498l-1.2 3.3-1.1 3.4-2.8 8.3q-4.3-1-8.2-3.2l-2.4-1.3-2.5-1.4-2.4-1.4C348 502 348 502 345 500v-2l1.8-.7 8-3.5 3-1.2q8.7-3.7 17.3-7.8z"/><path fill="#0a0a0a" d="M144 105q3.1.2 6 1 5.8 2.8 10.3 7.3c2.2 3.5 4.3 6.8 5.7 10.7.3 2.1.2 3.8 0 6q-7.6-2.5-15-5.9-4.4-2-9-3.1l-.1-5.7-.1-3.3c.2-3 .2-3 1.2-5.4zm0 23c4.4 1.5 7.4 2.6 11.2 5l2.5 1.5q3 1.9 5.3 4.5c-.3 1.8-.3 1.8-1 4q-2.5 4-6 7-4.3 2.5-9 4h-3z"/><path fill="#f1f1f1" d="m129 464 3 1 2 2.7q7.8 10.1 16.3 19.3l1.7 2 1 3-5 1 2 4q-5-5-9.8-10.2l-1.3-1.4q-6.2-7-11.9-14.4v-6z"/><path fill="#0a0a0a" d="M426 50c6 1 6 1 8.4 2.2q4.6 2.8 8.3 6.8 1.8 2.4 3.3 5v3l-18-1z"/><path fill="#0d0d0d" d="M418 78h1v21l-6-1c-2.3-1.4-2.3-1.4-4.4-3l-2-1.7L405 92v-4l4.8-3.9 2.7-2.2q2.7-2.1 5.5-3.9"/><path fill="#080808" d="M133 106h4l-1 13-17 2 1-5c6.5-7 6.5-7 10.2-9z"/><path fill="#eee" d="M113 267h3l2 2c-.6 5.4-2.4 10-4.6 14.9l-1 2.4-2.4 5.7-1-3h-2l-1 4-3 1c.6-6.1 3.1-11.3 5.6-16.9l1.2-3z"/><path fill="#ebebeb" d="M180 140q3.4 1 6.4 3l4.2 4 1.5 1.3 6.9 6.7h-3l1 7q-7.2-6-14.2-12.6-3.2-3-6.8-5.4z"/><path fill="#222" d="M381 104v3l-1 1.2c-6 8-11.6 15.8-16 24.8l-1.4-1.4c-1.5-1.7-1.5-1.7-3.6-2.6 7-8.7 14-17.2 22-25"/><path fill="#eee" d="m429 386 1 3-9 15-1-2h-2v-2l-3 1c1.5-4.6 4.1-8.2 7-12l3-1 3-1z"/><path fill="#eee" d="m430 375 7 1c-1.5 4.2-3.5 7.4-6 11l-6 2-3-1z"/><path fill="#282828" d="M177 145c3.5 1.5 6 3.5 8.7 6l1.3 1.2q6.6 6.3 13 12.8l-4 3-5.9-7.4q-6-7.7-13.1-14.6z"/><path fill="#0f0f0f" d="m361 129 2 2c-.4 3.5-1.5 6.2-3 9.3l-2 3.7-2-3-4-1 3.4-5 1.9-2.7 1.7-2.3z"/><path fill="#242424" d="M100 418q1.8 2.4 2.9 5.3l.7 2.6.8 2.5q.8 3.8.6 7.6c-4.1-3.4-7.8-6.7-11-11l6-1z"/></mask></defs><g fill="#2474d4" mask="url(#a)"><path d="M443.8 49.8C451.2 56.7 454.3 65 455 75c0 8.6-3.4 16.5-9.2 22.8-7.8 7.2-16.1 8.6-26.4 8.5-8.1-.7-14.8-4.8-21.4-9.3q-10.3 11.3-19 24l-1 1.5c-11.9 17.2-20.5 37.8-27 57.5l-.6 1.8-1.4 4.2q14 7.2 28.3 13.5l4.8 2.2q3.4 1.6 6.8 2.8c7.7 3.1 13 6 16.4 13.9q1.6 4.2 3 8.6l1.8 4.6 3.4 9.2q3 8.4 6.7 16.7l2.4 5.8 4.8 11.3q9 21 17.4 42l2.6 6.4 3.7 9.1 1.2 2.8 1 2.6 1 2.3c1.3 3.9 2 7 .9 11l-.7 2.1-.7 2.4-.7 2.4-2.5 8.3-1.8 5.9-4.8 15.8-5 16.4-6 19.9-16.3 54.6-2.3 7.8-2.5 8.6-.6 1.9-1.3 4.6c-2.2 5.4-6.4 7.4-11.5 9.7l-1.9.8-4 1.8-5.9 2.7-3.8 1.7-1.8.8c-4.3 1.9-9 4-13.8 2.5q-2.7-1.3-5.2-2.9l-1.8-1-6-3.5-5.8-3.4-3.7-2.1c-3.2-1.9-6-3.4-9.8-3.6-2.8.8-2.8.8-5.7 2.1l-1.6.7-5.2 2.3-3.5 1.5q-10.5 4.4-21 9.4c-2.1.9-2.1.9-4.1.9l-.5 1.7q-3.1 10.6-7 21l-1.2 3.3-3.3 9-.8 2.2c-1.6 4.3-3.1 5.9-7.2 7.8l-1.8.9-6.3 3-2.3 1-4.5 2.1-5.4 2.6-2.9 1.4-2.4 1.2c-4 1.4-7.3 1.3-11.3-.4l-3-1.7-1.6-1-5.3-3-3.7-2-7.2-4.2-8.5-4.8c-8.6-4.7-14.8-9.2-20.8-17.1l-2.3-2.8c-5.7-6.8-5.7-6.8-5.7-9.2h-2l-2.7-3.4-11.7-14.7-2-2.3-4.6-5.6q-8.7 3-17 7l-2 .9-3.8 2-1.8.8-1.5.9c-4.8 1.1-9.1-1-13.3-3.2l-3-1.6-3.3-1.7-3.3-1.7q-10.5-5.5-20.9-11.5l-2.3-1.3-2.2-1.3-2-1c-3.8-2.9-5.1-6.4-6.5-10.8l-.5-1.7-1.8-5.7-1.3-4.2L65 458l-2-6.4-8.3-27.6-1-3.3-2-6.5-4.5-15-.9-2.7-1.6-5c-2.2-7.2-2.4-13.2-.2-20.5l1-3.3 1-3.4 1.2-3.7c4.6-15 9.4-29.7 16.4-43.8l2.8-5.7c10.6-21.8 23.3-41 38.8-59.5l3-4 1.3-1.6h2l.6-1.6c2-3.4 4.6-6 7.4-8.7l1.7-1.6 1.5-1.6 1.5-1.5c1.3-1 1.3-1 3.3-1v-2q2.4-2.2 4.9-4.1l1.3-1.1 3-2.4 4-3.2q8.8-7.1 18.1-13.3l4.6-3q15-10 31.1-17.9c0-3.6-2.6-6.5-4.4-9.4l-1.4-2.2q-6-9.2-13.2-17.4l-1.8-2c-1.9-2.3-1.9-2.3-4.2-4-3.8.2-5.3 2.2-7.7 4.9-3.8 3.9-7 5.8-12.3 7.1l-2 .6c-9.7 2-17.5-.3-25.7-5.5-7.2-5-10.7-11.4-13-19.7-1-9.4.8-17.9 6.7-25.4 5.2-6 12.2-11.6 20.2-12.2 10.2-.3 18 .8 26.1 7.4 6.1 5.8 10.4 13.7 10.8 22.2l-.1 6.6 2 .7c3.8 1.6 6.6 3.9 9.8 6.4l1.8 1.5c11.1 9 11.1 9 14.4 12.4v2h2q2.3 2.5 4.3 5l1.2 1.5q4.4 5.6 8.5 11.5l2.3-.6 8.6-2.3 3.7-1c31.6-8.3 65.4-10.1 95.4 4.9l.4-1.6c2-8 5.8-15.2 9.6-22.5l2.5-4.8c9-17.3 21.2-32 34.5-46.1l2.2-2.3q6.6-7.1 14.8-12.7h2l-.4-1.5c-2.6-9.2-2-17.6 2.3-26.4 4.6-7.2 11.7-13 20-15.5 10-2 20.9.8 29 7.1M404.1 59c-4 5.2-5.3 9-5.2 15.6v1.8l.1 4.5 1.4-.7 16.8-8.3c2.4-1.3 2.9-2.4 3.8-5q1.1-8.4-2-16c-6-.5-11 3.8-14.9 8M427 51l1 15h17c-1.8-4.6-3.4-6.8-7-10l-2.4-2.2c-3-2.3-3-2.3-8.6-2.8m-1 24v23c9-2 13.3-3.5 18.4-11 1.9-3.6 3.5-7 2.6-11-2.7-3.3-6.3-3.6-10.4-4.2-3.6.1-3.6.1-10.6 3.2m-14.6 8.8-1.5 1c-3 2-3 2-4.4 5.3.7 2.5 1.6 3.2 3.7 4.6l1.8 1.2c2.4 1.4 2.4 1.4 7 2.1V80c-2.3 0-4.7 2.4-6.6 3.8M145 106c-2.3 2.4-2.4 5-2.6 8.2l-.3 2.7-.1 2.1q11 6 23 10c-.3-7.6-3-12.9-8.3-18.4-3.5-3-7.1-4.6-11.7-4.6m-22.6 8.1c-2.2 2.3-2.4 2.5-2.4 5.9l15-1 1-13c-4.6 0-10.4 5.1-13.6 8.1M367 120c-2.3 2.4-4 5.3-6 8l-1.2 1.7c-9.8 13.7-17.6 27.4-24.2 42.8l-.9 1.9-2.3 5.4-1.3 3.2q-1.6 4.4-2.1 9c3.5 1.3 6.3 2.1 10 2l.5-1.6c6.6-23 14.7-45.8 27.2-66.4 1.8-2.8 1.8-2.8 2.3-6zm-250 10c-.4 6.8 2.6 12 7 17 4.6 3.9 7.9 5 14 6v-25c-6.3-3.1-15.6-3.4-21 2m28-1v24c6.8-1.1 11-3.3 15.4-8.7q1.5-2.2 2.6-4.3c-4.5-5.5-10.6-8.2-17-11zm44 27 2 4v-3zm3 4c1.4 3.8 3.2 7 5.4 10.4 9.4 14.7 16.3 31 21.6 47.6l2 6 4.9.1 2.7.1c2.6 0 2.6 0 4.4-2.2-6.5-21-20.6-51-41-62m30 22 .8 1.6 2.6 5.2 3.5 7C240.5 218 240.5 218 240 228c-5.5 2.2-10.6 2.4-16.4 2.5h-2.1l-1.9.1c-1.7.3-1.7.3-2.8 2l-.8 1.4 6 3.8q4.5 2.8 8.6 6.2c3.8 3 7.6 6 12.4 7 6-.7 11.2-4.4 16.3-7.5q7.5-4 15.4-7l1.7-.8c29.8-12.4 60.4-20.7 92.6-23.7l5.7-.6 4.3-.4c-2.3-2.3-4.3-3.2-7.1-4.6l-3.2-1.6-1.8-.9-6.1-3-2.2-1.1-4.3-2.2-2-1-1.7-.8c-1.8-1-1.8-1-4.6-1.8l-2 8-7.6-1.3-2.1-.4c-4.8-.8-8.9-2.2-13.3-4.3l1-4.2.5-2.4 1.5-6.4q-10-4.2-20.4-7.2l-1.8-.5c-25.9-7.2-54.7-.5-79.8 6.7m-23 8c-2.4 1-2.4 1-5 2.4l-3.2 1.6-1.6.8-4.8 2.5c-4.7 2.5-8.7 4.7-12.4 8.7l4.6 3.3 2.5 1.8 6.1 3.7c5.7 3.2 11.1 7 16.6 10.6l2.6 1.7 2.3 1.5q3.5 2 7.3 3.4c1.3-3.6.7-5.8-.4-9.4l-1-3.2-1.2-3.4-.5-1.7c-4-12.1-4-12.1-9.9-23.3zm-47.6 31.3q-6 6.6-11.4 13.7l-1.1 1.5c-13.3 18-23.4 39.4-30.9 60.5l-1 3q-7 19.4-12 39.3l-.5 1.8c-1.5 5.8-2.7 11-2.5 16.9l3 1.4q15.4 7.1 30.3 15.2l13.6 7 23.3 12.3 25 13 1.9 1L209 418q2.3-7.7 3.7-15.6l.4-2.5 1-5.4 2.7-14.5.5-3 5.3-27.7q8.9-46 16.4-92.3l-1.6-1q-14.6-8.5-28.8-17.7l-13-8.2-2.4-1.6-11.8-7.4-2.2-1.4-4.1-2.5q-3.8-2.3-7.4-5c-5.1-3.7-12.6 5.6-16.3 9.1M278 243l-2.6 1.1q-5.8 2.4-11.4 5.1-3.7 1.7-7.8 2.9c-3.8 1.1-6.8 2.7-9.2 5.9-1.5 4-2.2 8.1-3 12.3l-.7 3.8-2 10-1 5.7-4.7 25.5-1.9 10.7-.4 2.2-.8 4.3-1.2 6.6-7.3 40-1.3 7-1.7 9.5-.6 2.8q-1.3 7.4-3 14.6-.7 4.5-.4 9 16 8.9 32.1 17.3 7.8 4 15.3 8.4 6.9 4 13.9 7.4 9.2 4.7 18.1 9.8l2.8 1.6 2.5 1.4c3.6 1.7 5.2 2.5 9.1 1.2l3.2-1.5 1.8-.7 5.8-2.6 4-1.8 6.3-2.8 20.2-8.7 3.1-1.3 23.2-9.7 6-2.5 2-.8 2-.9 1.8-.7c5-3 8-7.5 10.8-12.5l1-1.8 2.4-4 6-10.1 1.2-2q4.8-8 9.9-16 6-9.6 11.8-19.5 3-5.4 6.8-10.6l1.6-2.2 3-4c2-3 3.3-4.6 3.4-8.2q-2.5-7-5.7-13.6-7.4-16.8-14.3-33.7l-4.1-10.1-1-2.6-10.6-25.3-8.6-20.8-.8-2-3.7-9-1.3-3.2-1-2.8c-.8-2-.8-2-2-3.1-39.8-2.8-81 9.7-117 25m-153-1v3Zm-2 3-3.5 3.5-3 2.9c-6.2 6-11.3 12.8-16.5 19.6l-1.8 2.4C80.2 298.1 53 340.8 53 373q8.3-3.3 16-8l3-1.6 3-1.6 2.6-1.4L80 359l2.2-1.2c2.6-2.6 3.2-5.6 4-9l.5-2.3 1.1-4.6 3-12 .6-2.4c6.5-26.4 16.6-55.1 31.3-78.2l1.3-2.3zM84 365l-30 16c-.3 3.1-.3 3.1 1.9 5.2l2.6 2.5 1.4 1.4 4.4 4.3 4.4 4.3 2.8 2.7q2.8 2.7 5.2 5.9L78 409h2l1 3c1.5 1.5 1.5 1.5 3.4 3q7.7 6.7 14.6 14l2.6 2.7 2.4 2.3q-4.8-19.5-10.2-38.9l-2.4-8.8-2.3-8.5-.8-3.2-.9-3-.7-2.5c-.6-2.3-.6-2.3-2.7-4.1m10 3c.6 8.1 3.1 15.6 5.5 23.4q4.3 14 7.8 28l.6 2.3 2.1 8.9c2.4 10.3 5.7 16.8 13 24.4l3.2 3.8 2.8 3.2q6.4 7.4 12.7 15.2l8.2 9.7q5.8 6.6 11 13.5 6.3 8.3 13.3 16.2 6 6.7 11.5 13.6l8.1 9.7 1.4 1.7 1.3 1.6 1.2 1.3c3.2 3.6 6.2 6.2 10.4 8.6l3 1.6 1.5.9 4.5 2.5q9.3 5.2 18.9 9.9c1-3.2 1-5.4.3-8.7l-.6-2.8-.6-3-.7-3.3-1.8-8.9-1.9-9.3-3.2-15.7-4.4-22-3.5-17.3-.4-1.8-1.1-5.3-.4-1.8-2.4-11.7-2.5-13-.6-3.2-1-6c-1-5-1-5-4-8.9q-3-1.8-6.2-3.3l-3.5-2-3.5-1.8-1.7-.9q-6.8-3.6-13.8-7l-24.8-12.7-2.2-1.1-24.7-12.9-2.2-1.1-12.3-6.5-5.8-3.1-2.7-1.5-2.6-1.3-2.2-1.2c-2.1-1.1-2.1-1.1-5-.9m343 9-1 1.8c-11.4 19.4-11.4 19.4-17 28.3l-1.2 1.9q-3.3 5.4-7 10.6c-8.6 12.8-13.2 25.3-17.3 40q-2.6 9.3-5.7 18.6-3.6 10.8-6.8 21.7l-.6 2c-.8 2.9-1.4 5.2-1.4 8.1 6.9-1.6 12.8-4.8 19-8l2-.8c2.7-1.6 3-3 3.8-6l1-3 .9-3.4 1-3.6 2.2-7.4 3.3-11.1 6.1-20.8 5.3-18 .6-2 7.2-24 .8-2.5 3.2-10.5 1.1-3.5 1-3c.7-2.5.7-2.5-.5-5.4M55 396q3.5 15.3 8.3 30 3.3 10.5 6 21l3.7 13.2 1.7 6.6c3.4 14.7 3.4 14.7 13.8 25q4.6 2.4 9.4 4.3 4 1.8 8 4.1l4.6 2.5 2.4 1.3 2.4 1.3 2 1 1.7.7 2-1-4.1-20-2-9.4-1.8-9-1-5.1-.7-3.2-.6-2.7q-1.8-5.9-6.2-10.4l-1.3-1.4-1.5-1.6-1.6-1.7q-10.4-11-21.3-21.6l-8.2-8.2-2-1.9q-3.5-3.3-6.5-7.2L61 401h-2l-.9-2c-1-2.2-1-2.2-3.1-3m163 35q1.1 12.6 4 25l1 4.4q1 6 2.4 11.8l4 19.8 1 5 7 34 .7 4 3.2 16.3 1.6 8.1.6 3 .5 2.6.4 2.3.6 1.7c4.7 2.4 11-.4 15.8-2 8.1-3.1 12.6-7.6 16.1-15.5 4.6-11.2 8-23 11.3-34.6q3.7-12 8.4-23.6l2.6-7 1-2.7c.8-2.7 1-4.8.8-7.6-1.6-1.6-1.6-1.6-4-2.7l-2.7-1.6-3.3-1.7-4-2.2-8.6-4.5-9.8-5.2q-6.7-3.8-13.7-7.3-15-7.7-29.5-16.1l-2.5-1.5-2.2-1.3c-1.5-1-1.5-1-2.7-.9m171 12c-2.6.9-2.6.9-5.7 2.3l-1.7.8-3.8 1.6-10.2 4.5-2.1 1-23 9.7-3.8 1.6-1.8.8-5.3 2.2-7.4 3-3.8 1.6-1.7.7c-5 2.1-9.1 4.3-11.3 9.5l-1.3 3.9-.7 2-2.2 6.6-1.5 4.4L298 510c4 1.3 5 .4 8.8-1.4l1.7-.7 5.6-2.6 4-1.9 6-2.7 18.6-8.3 3-1.4 14.5-6.1 7-2.8 4.8-2c4.8-2 8.2-3.4 10.5-8.2l1.5-4.9 1-2.9 2.8-9.2 1-3.2 2.2-7.7zm-269 21q2.2 15 5.6 29.8l1 4.5L129 509l6.2-2.4 1.8-.6q6.7-2.6 13-6c-1.3-2.8-2.6-5-4.7-7.2l-1.5-1.8-1.7-2-3.6-4-1.8-2-9.1-10.8-1.3-1.5-1-1.3q-2.6-2.8-5.3-5.4m257 21-29 13v3c1.7 1.5 1.7 1.5 4 2.7l2.6 1.5 2.7 1.5 2.7 1.5c4.7 3 4.7 3 10 3.8l3.5-10.6 1.2-3.6 1.6-5.1 1-3.2c1-2.5 1-2.5-.3-4.5"/><path d="M379.5 270.2c14.3 11.4 21.9 29.3 24.3 47 2.9 26.1-6.6 53-22.7 73.4-14 17.4-31.5 30-54.1 33.4-18.2 1.7-34-2.6-48.7-13.7L277 409v-2h-2v-2h-2c-15.5-17.7-18-40.4-17-63 1.7-19.4 11-39 23-54l1.8-2.3c24.4-29.2 67.3-39.1 98.7-15.5M285 293c-14.3 17.3-24 43.4-22 66 1.7 15.1 5.6 28.5 16 40l1.7 2c7.5 8.5 19.2 14.1 30.4 15.2 19.5.9 36.3-4.5 51.5-16.8 1.6-1.3 1.6-1.3 1.4-3.4l1.8-.8c12.9-7 22.4-28.8 26.5-42.2 6-21.5 5.6-42.5-5.1-62.3-6.7-11.6-18.2-20.5-31.1-24.3-28.5-6-52 5.6-71.1 26.6"/><path d="M354.2 305.5q11.3 9.2 13.8 23.5c1 10.2.8 19.7-4 29l-1.2 2.6c-6.1 11.2-15.7 18.3-27.8 22q-14.9 2.8-27.6-5.2c-7.8-5.4-12.2-13.3-14.4-22.4q-.5-4.8-.4-9.4V343q.7-18.6 13.6-32.3c13.5-12.4 32.5-15.9 48-5.2m-43 12c-9.2 10.5-11.1 21-10.4 34.5.7 6.7 4 13.6 9.2 18 7.7 4.7 14.6 6 23.5 4.6 9.3-2.3 16.1-8 21.4-16 5.9-10 7.6-20 5-31.2q-3.3-11.1-13-17.4c-12.6-6.6-26.1-1.9-35.7 7.5M356 137h2l-1 3z"/></g></svg>